name ./resultDataOpenSim/trcMotMarkerGrf/sub09/grf-12-01.mot
datacolumns 19
datarows 25
range 1.53600000 1.63200000
endheader

                time	     ground_force_vx	     ground_force_vy	     ground_force_vz	     ground_force_px	     ground_force_py	     ground_force_pz	   l_ground_force_vx	   l_ground_force_vy	   l_ground_force_vz	   l_ground_force_px	   l_ground_force_py	   l_ground_force_pz	     ground_torque_x	     ground_torque_y	     ground_torque_z	   l_ground_torque_x	   l_ground_torque_y	   l_ground_torque_z	
          1.53600000	        -17.83169815	        418.02473636	        -18.17129033	          0.99800235	          0.00000000	          0.10490557	          0.00000000	          0.00000000	          0.00000000	          0.00000000	          0.00000000	          0.00000000	          0.00000000	          3.73995339	          0.00000000	          0.00000000	          0.00000000	          0.00000000	
          1.54000000	        -19.72058756	        419.08815009	        -17.59275193	          0.99885077	          0.00000000	          0.10469586	          0.00000000	          0.00000000	          0.00000000	          0.00000000	          0.00000000	          0.00000000	          0.00000000	          4.03324368	          0.00000000	          0.00000000	          0.00000000	          0.00000000	
          1.54400000	        -20.85412721	        420.55869215	        -16.34442015	          0.99952552	          0.00000000	          0.10445768	          0.00000000	          0.00000000	          0.00000000	          0.00000000	          0.00000000	          0.00000000	          0.00000000	          4.34865279	          0.00000000	          0.00000000	          0.00000000	          0.00000000	
          1.54800000	        -20.56840044	        422.41716340	        -14.68963698	          0.99992900	          0.00000000	          0.10421981	          0.00000000	          0.00000000	          0.00000000	          0.00000000	          0.00000000	          0.00000000	          0.00000000	          4.64353624	          0.00000000	          0.00000000	          0.00000000	          0.00000000	
          1.55200000	        -18.58798533	        424.65237931	        -12.97868108	          1.00002990	          0.00000000	          0.10401018	          0.00000000	          0.00000000	          0.00000000	          0.00000000	          0.00000000	          0.00000000	          0.00000000	          4.88654584	          0.00000000	          0.00000000	          0.00000000	          0.00000000	
          1.55600000	        -15.08150629	        427.27912738	        -11.58512883	          0.99986410	          0.00000000	          0.10384337	          0.00000000	          0.00000000	          0.00000000	          0.00000000	          0.00000000	          0.00000000	          0.00000000	          5.06381961	          0.00000000	          0.00000000	          0.00000000	          0.00000000	
          1.56000000	        -10.59165673	        430.33981014	        -10.83476495	          0.99952317	          0.00000000	          0.10371883	          0.00000000	          0.00000000	          0.00000000	          0.00000000	          0.00000000	          0.00000000	          0.00000000	          5.17973374	          0.00000000	          0.00000000	          0.00000000	          0.00000000	
          1.56400000	         -5.87276633	        433.89498563	        -10.94468668	          0.99914493	          0.00000000	          0.10362880	          0.00000000	          0.00000000	          0.00000000	          0.00000000	          0.00000000	          0.00000000	          0.00000000	          5.25271652	          0.00000000	          0.00000000	          0.00000000	          0.00000000	
          1.56800000	         -1.68128370	        438.00975402	        -11.98467992	          0.99887691	          0.00000000	          0.10356385	          0.00000000	          0.00000000	          0.00000000	          0.00000000	          0.00000000	          0.00000000	          0.00000000	          5.30814617	          0.00000000	          0.00000000	          0.00000000	          0.00000000	
          1.57200000	          1.42886793	        442.73227635	        -13.86443898	          0.99881570	          0.00000000	          0.10350898	          0.00000000	          0.00000000	          0.00000000	          0.00000000	          0.00000000	          0.00000000	          0.00000000	          5.37084594	          0.00000000	          0.00000000	          0.00000000	          0.00000000	
          1.57600000	          3.24536923	        448.06793842	        -16.34685072	          0.99899917	          0.00000000	          0.10345222	          0.00000000	          0.00000000	          0.00000000	          0.00000000	          0.00000000	          0.00000000	          0.00000000	          5.45915634	          0.00000000	          0.00000000	          0.00000000	          0.00000000	
          1.58000000	          3.93134026	        453.96951743	        -19.09114790	          0.99940538	          0.00000000	          0.10339142	          0.00000000	          0.00000000	          0.00000000	          0.00000000	          0.00000000	          0.00000000	          0.00000000	          5.58154141	          0.00000000	          0.00000000	          0.00000000	          0.00000000	
          1.58400000	          3.95898609	        460.35536791	        -21.72484646	          0.99996536	          0.00000000	          0.10333100	          0.00000000	          0.00000000	          0.00000000	          0.00000000	          0.00000000	          0.00000000	          0.00000000	          5.73583191	          0.00000000	          0.00000000	          0.00000000	          0.00000000	
          1.58800000	          3.97084472	        467.14715397	        -23.92372373	          1.00059471	          0.00000000	          0.10327537	          0.00000000	          0.00000000	          0.00000000	          0.00000000	          0.00000000	          0.00000000	          0.00000000	          5.91080057	          0.00000000	          0.00000000	          0.00000000	          0.00000000	
          1.59200000	          4.59985074	        474.29978714	        -25.47720204	          1.00119080	          0.00000000	          0.10322291	          0.00000000	          0.00000000	          0.00000000	          0.00000000	          0.00000000	          0.00000000	          0.00000000	          6.08961841	          0.00000000	          0.00000000	          0.00000000	          0.00000000	
          1.59600000	          6.28979611	        481.80174362	        -26.32805485	          1.00168345	          0.00000000	          0.10317105	          0.00000000	          0.00000000	          0.00000000	          0.00000000	          0.00000000	          0.00000000	          0.00000000	          6.25452696	          0.00000000	          0.00000000	          0.00000000	          0.00000000	
          1.60000000	          9.17232639	        489.66418420	        -26.58015070	          1.00206471	          0.00000000	          0.10311803	          0.00000000	          0.00000000	          0.00000000	          0.00000000	          0.00000000	          0.00000000	          0.00000000	          6.39166194	          0.00000000	          0.00000000	          0.00000000	          0.00000000	
          1.60400000	         13.04211128	        497.92189961	        -26.47149830	          1.00236721	          0.00000000	          0.10306872	          0.00000000	          0.00000000	          0.00000000	          0.00000000	          0.00000000	          0.00000000	          0.00000000	          6.49463392	          0.00000000	          0.00000000	          0.00000000	          0.00000000	
          1.60800000	         17.43006021	        506.64028960	        -26.31510324	          1.00267540	          0.00000000	          0.10302437	          0.00000000	          0.00000000	          0.00000000	          0.00000000	          0.00000000	          0.00000000	          0.00000000	          6.56562715	          0.00000000	          0.00000000	          0.00000000	          0.00000000	
          1.61200000	         21.74718360	        515.91187152	        -26.42107934	          1.00306393	          0.00000000	          0.10297528	          0.00000000	          0.00000000	          0.00000000	          0.00000000	          0.00000000	          0.00000000	          0.00000000	          6.61362517	          0.00000000	          0.00000000	          0.00000000	          0.00000000	
          1.61600000	         25.45964376	        525.82934882	        -27.02164020	          1.00358839	          0.00000000	          0.10290383	          0.00000000	          0.00000000	          0.00000000	          0.00000000	          0.00000000	          0.00000000	          0.00000000	          6.65059531	          0.00000000	          0.00000000	          0.00000000	          0.00000000	
          1.62000000	         28.24676938	        536.44400820	        -28.22125599	          1.00426988	          0.00000000	          0.10279618	          0.00000000	          0.00000000	          0.00000000	          0.00000000	          0.00000000	          0.00000000	          0.00000000	          6.68733101	          0.00000000	          0.00000000	          0.00000000	          0.00000000	
          1.62400000	         30.09175972	        547.73878774	        -29.98150954	          1.00508356	          0.00000000	          0.10264662	          0.00000000	          0.00000000	          0.00000000	          0.00000000	          0.00000000	          0.00000000	          0.00000000	          6.73065104	          0.00000000	          0.00000000	          0.00000000	          0.00000000	
          1.62800000	         31.27551948	        559.63571805	        -32.13003402	          1.00597682	          0.00000000	          0.10245222	          0.00000000	          0.00000000	          0.00000000	          0.00000000	          0.00000000	          0.00000000	          0.00000000	          6.78285495	          0.00000000	          0.00000000	          0.00000000	          0.00000000	
          1.63200000	         32.28513508	        572.02426293	        -34.38528423	          1.00688142	          0.00000000	          0.10221198	          0.00000000	          0.00000000	          0.00000000	          0.00000000	          0.00000000	          0.00000000	          0.00000000	          6.84321271	          0.00000000	          0.00000000	          0.00000000	          0.00000000	
